<svg xmlns="http://www.w3.org/2000/svg" xmlns:xlink="http://www.w3.org/1999/xlink" viewBox="0 0 754.35 754.35"><defs><style>.cls-1{fill:url(#Gradiente_sem_nome_37);}.cls-2{fill:url(#Gradiente_sem_nome_37-2);}.cls-3{fill:url(#Gradiente_sem_nome_37-3);}</style><linearGradient id="Gradiente_sem_nome_37" y1="377.17" x2="754.35" y2="377.17" gradientUnits="userSpaceOnUse"><stop offset="0" stop-color="#fff8e1"/><stop offset="0.22" stop-color="#fdd835"/><stop offset="0.44" stop-color="#fbc02d"/><stop offset="0.66" stop-color="#f57f17"/><stop offset="1" stop-color="#8d6e63"/></linearGradient><linearGradient id="Gradiente_sem_nome_37-2" x1="145.58" y1="360.59" x2="355.21" y2="360.59" xlink:href="#Gradiente_sem_nome_37"/><linearGradient id="Gradiente_sem_nome_37-3" x1="404.43" y1="360.59" x2="665.1" y2="360.59" xlink:href="#Gradiente_sem_nome_37"/></defs><g id="Camada_2" data-name="Camada 2"><g id="Camada_1-2" data-name="Camada 1"><path class="cls-1" d="M377.17,754.35C169.2,754.35,0,585.15,0,377.17S169.2,0,377.17,0,754.35,169.2,754.35,377.17,585.15,754.35,377.17,754.35Zm0-739.48c-199.77,0-362.3,162.53-362.3,362.3S177.4,739.48,377.17,739.48,739.48,577,739.48,377.17,577,14.87,377.17,14.87Z"/><path class="cls-2" d="M145.58,204.74H346.1v34.63H187.51V336H335.16v34.63H187.51v111.2h167.7v34.63H145.58Z"/><path class="cls-3" d="M450,235.73q34.61-34.62,89.32-34.64t85.67,31q32.82,32.8,34.64,83.85H615.88q-3.68-38.28-23.7-58.33-21.87-21.87-52.86-21.87-32.81,0-58.33,25.51-32.81,32.82-32.81,100.26T481,461.76q23.67,23.72,58.33,23.69,36.43,0,56.51-20.05,25.5-25.5,25.52-72.91H665.1q-1.85,62-36.46,96.61-31,31-89.32,31-54.69,0-89.32-34.64-45.58-45.54-45.57-123.95Q404.43,281.31,450,235.73Z"/></g></g></svg>